Coordinates
version=1
nRows=27
nColumns=26
inDegrees=yes

Units are S.I. units (second, meters, Newtons, ...)
Angles are in degrees.

endheader
time	pelvis_tilt	pelvis_list	pelvis_rotation	pelvis_tx	pelvis_ty	pelvis_tz	hip_flexion_r	hip_adduction_r	hip_rotation_r	knee_angle_r	knee_angle_r_beta	ankle_angle_r	subtalar_angle_r	mtp_angle_r	hip_flexion_l	hip_adduction_l	hip_rotation_l	knee_angle_l	knee_angle_l_beta	ankle_angle_l	subtalar_angle_l	mtp_angle_l	lumbar_extension	lumbar_bending	lumbar_rotation
      0.54166667	      2.26696472	      2.92916719	      4.11071230	      0.69926949	      0.99144521	      0.23461897	     19.86505662	     -4.27773736	    -10.57169393	      3.06923451	      3.06923451	     -1.16001743	      0.00000000	      0.00000000	    -10.51785176	      3.89502978	     -4.67006043	     12.55427962	     12.55427962	     15.34600832	      0.00000000	      0.00000000	    -15.53286912	     -2.93431020	     -0.71935647
      0.55000000	      2.31402704	      2.86982922	      4.18548359	      0.70815705	      0.99003627	      0.23498695	     20.26152080	     -4.27079163	    -10.87035469	      4.57990187	      4.57990187	     -1.10322146	      0.00000000	      0.00000000	    -11.02833623	      3.70677186	     -4.78728314	     12.76055184	     12.76055184	     15.61262647	      0.00000000	      0.00000000	    -15.56382510	     -2.63604812	     -0.80601738
      0.55833333	      2.44312680	      2.80380523	      4.29148834	      0.71732412	      0.98884675	      0.23543631	     20.48206167	     -4.26531061	    -11.04343289	      6.17372256	      6.17372256	     -1.33638176	      0.00000000	      0.00000000	    -11.60725421	      3.51162566	     -4.81786452	     13.05376634	     13.05376634	     15.90654796	      0.00000000	      0.00000000	    -15.66500501	     -2.31110892	     -0.98298037
      0.56666667	      2.62806155	      2.72101760	      4.42420007	      0.72666398	      0.98778305	      0.23592101	     20.56139156	     -4.24346113	    -11.22737002	      7.71635445	      7.71635445	     -1.65113912	      0.00000000	      0.00000000	    -12.23836474	      3.28524141	     -4.82887351	     13.35947721	     13.35947721	     16.11939607	      0.00000000	      0.00000000	    -15.80328377	     -1.94759864	     -1.16144305
      0.57500000	      2.89058123	      2.55214212	      4.51949843	      0.73630803	      0.98685189	      0.23658670	     20.43499240	     -4.06948756	    -11.32649907	      9.05459178	      9.05459178	     -1.82087476	      0.00000000	      0.00000000	    -12.89058754	      2.94993602	     -4.95792982	     13.80680643	     13.80680643	     16.32733922	      0.00000000	      0.00000000	    -15.98383812	     -1.49672741	     -1.29066314
      0.58333333	      3.18381204	      2.33597906	      4.65271504	      0.74610030	      0.98608124	      0.23734032	     20.14152921	     -3.82793409	    -11.39785451	     10.11819571	     10.11819571	     -1.92800455	      0.00000000	      0.00000000	    -13.48583370	      2.53224879	     -5.01469352	     14.44428349	     14.44428349	     16.55716495	      0.00000000	      0.00000000	    -16.17225452	     -0.98207183	     -1.39527925
      0.59166667	      3.55473388	      2.07682779	      4.85074017	      0.75613583	      0.98560176	      0.23794313	     19.63159000	     -3.56245821	    -11.59613887	     10.87893746	     10.87893746	     -2.39110682	      0.00000000	      0.00000000	    -14.16605153	      2.04185234	     -5.03537818	     15.06848078	     15.06848078	     16.66267777	      0.00000000	      0.00000000	    -16.40981683	     -0.38364040	     -1.51764351
      0.60000000	      3.99342445	      1.80009156	      5.08353771	      0.76629166	      0.98536302	      0.23841487	     18.91781677	     -3.28739029	    -11.97541572	     11.36483543	     11.36483543	     -3.28480587	      0.00000000	      0.00000000	    -14.80042999	      1.50937489	     -5.07449151	     15.93708317	     15.93708317	     16.76683682	      0.00000000	      0.00000000	    -16.69930687	      0.25733991	     -1.57817090
      0.60833333	      4.49167933	      1.50340739	      5.35681010	      0.77662758	      0.98530855	      0.23889629	     18.04468881	     -3.00765700	    -12.46400988	     11.73180852	     11.73180852	     -4.18594319	      0.00000000	      0.00000000	    -15.40225387	      0.90300568	     -5.07989084	     16.97023794	     16.97023794	     16.76011544	      0.00000000	      0.00000000	    -17.02208303	      0.93431234	     -1.62791785
      0.61666667	      5.01723545	      1.30689080	      5.55644858	      0.78711033	      0.98543133	      0.23959261	     17.03261654	     -2.77127647	    -12.81563768	     11.92200966	     11.92200966	     -4.99680281	      0.00000000	      0.00000000	    -15.99100149	      0.38789349	     -5.01215946	     18.12957420	     18.12957420	     16.68382690	      0.00000000	      0.00000000	    -17.36757862	      1.46650860	     -1.58328365
      0.62500000	      5.48858729	      1.16522498	      5.56811181	      0.79762630	      0.98561180	      0.24060447	     16.10111729	     -2.53720326	    -12.98685478	     12.16313007	     12.16313007	     -5.59795894	      0.00000000	      0.00000000	    -16.42110184	     -0.01179268	     -5.08797285	     19.42546229	     19.42546229	     16.35848959	      0.00000000	      0.00000000	    -17.64617462	      1.87736361	     -1.32731341
      0.63333333	      5.90042592	      0.96673138	      5.62556140	      0.80777496	      0.98580470	      0.24164806	     15.25754239	     -2.24793755	    -13.21020177	     12.46582162	     12.46582162	     -6.06267695	      0.00000000	      0.00000000	    -16.51844665	     -0.52687134	     -5.08992457	     21.17041307	     21.17041307	     16.08619568	      0.00000000	      0.00000000	    -17.89787445	      2.34213871	     -1.09210129
      0.64166667	      6.22586145	      0.77436112	      5.57836919	      0.81767572	      0.98615187	      0.24289205	     14.57949680	     -1.92459664	    -13.12137739	     12.89743040	     12.89743040	     -6.00880660	      0.00000000	      0.00000000	    -16.33009707	     -1.06050960	     -5.18521900	     23.20985422	     23.20985422	     15.60374285	      0.00000000	      0.00000000	    -18.08723738	      2.75218591	     -0.76208828
      0.65000000	      6.47392399	      0.47256793	      5.51966465	      0.82729334	      0.98651412	      0.24416990	     14.11448197	     -1.48520383	    -12.96355258	     13.62109075	     13.62109075	     -5.35213585	      0.00000000	      0.00000000	    -15.75691639	     -1.73996324	     -5.32274016	     25.72147947	     25.72147947	     15.04619278	      0.00000000	      0.00000000	    -18.22020701	      3.25956678	     -0.35248575
      0.65833333	      6.67609404	      0.02122845	      5.46145743	      0.83670690	      0.98702084	      0.24550926	     13.80704678	     -0.90122565	    -12.85933426	     14.61187012	     14.61187012	     -4.40725522	      0.00000000	      0.00000000	    -14.91881387	     -2.63365974	     -5.46310995	     28.58123868	     28.58123868	     14.27359769	      0.00000000	      0.00000000	    -18.32346204	      3.90618563	      0.08182168
      0.66666667	      7.04561003	     -0.32981321	      5.22232519	      0.84623712	      0.98808271	      0.24708152	     13.25792248	     -0.36334926	    -12.58940959	     15.46215027	     15.46215027	     -3.55946000	      0.00000000	      0.00000000	    -14.63489588	     -3.41069079	     -6.00895503	     30.66405655	     30.66405655	     13.08946992	      0.00000000	      0.00000000	    -18.64781079	      4.38685717	      0.65378703
      0.67500000	      7.38159247	     -0.67359323	      4.98258284	      0.85561231	      0.98920491	      0.24890663	     12.68616139	      0.17615258	    -12.30689006	     16.18282821	     16.18282821	     -2.78095157	      0.00000000	      0.00000000	    -14.13163888	     -4.23348653	     -6.56859368	     33.06573246	     33.06573246	     11.78598408	      0.00000000	      0.00000000	    -18.96362146	      4.79823026	      1.19507481
      0.68333333	      7.78581735	     -0.91858584	      4.70032280	      0.86499162	      0.99059127	      0.25111629	     11.91667141	      0.66887909	    -11.97274730	     16.66955248	     16.66955248	     -2.10120901	      0.00000000	      0.00000000	    -13.61669405	     -5.00541781	     -7.19071307	     35.65517351	     35.65517351	     10.31373120	      0.00000000	      0.00000000	    -19.37211889	      5.03169507	      1.72084363
      0.69166667	      8.14459847	     -1.16380579	      4.40598947	      0.87417096	      0.99195062	      0.25337243	     11.10694969	      1.17647386	    -11.71350659	     16.94524209	     16.94524209	     -1.57020240	      0.00000000	      0.00000000	    -12.87685405	     -5.81179978	     -7.83122492	     38.38106640	     38.38106640	      8.68690568	      0.00000000	      0.00000000	    -19.75041373	      5.21311931	      2.24750681
      0.70000000	      8.53085016	     -1.38803020	      4.12308842	      0.88325045	      0.99343548	      0.25574675	     10.12974971	      1.70308742	    -11.44140777	     16.96807271	     16.96807271	     -1.10049674	      0.00000000	      0.00000000	    -12.11723953	     -6.66199894	     -8.55127794	     41.10687526	     41.10687526	      6.99239338	      0.00000000	      0.00000000	    -20.15881021	      5.34655061	      2.73806417
      0.70833333	      8.94533677	     -1.55613036	      3.85422941	      0.89228174	      0.99502320	      0.25820193	      8.99640766	      2.19373195	    -11.20309614	     16.74706581	     16.74706581	     -0.66632782	      0.00000000	      0.00000000	    -11.36947068	     -7.48172899	     -9.23879956	     43.79563066	     43.79563066	      5.28619177	      0.00000000	      0.00000000	    -20.58716427	      5.38410386	      3.16317471
      0.71666667	      9.34364470	     -1.83061789	      3.61423422	      0.90127468	      0.99654637	      0.26069247	      7.90240916	      2.75704489	    -11.24305228	     16.55039250	     16.55039250	     -0.31202760	      0.00000000	      0.00000000	    -10.58798331	     -8.44842411	     -9.89407646	     46.49645754	     46.49645754	      3.68516513	      0.00000000	      0.00000000	    -20.98127459	      5.50575430	      3.63879090
      0.72500000	      9.62039222	     -2.06605131	      3.44323726	      0.90988105	      0.99791297	      0.26304145	      6.91533833	      3.25591104	    -11.23000884	     16.26773101	     16.26773101	     -0.01642249	      0.00000000	      0.00000000	     -9.66352626	     -9.33222332	    -10.42031997	     49.00689950	     49.00689950	      2.59485262	      0.00000000	      0.00000000	    -21.25430827	      5.59654110	      3.99952098
      0.73333333	      9.97954029	     -2.24020074	      3.04131543	      0.91882408	      0.99963945	      0.26536485	      5.81447224	      3.68790029	    -11.02322377	     15.96773855	     15.96773855	      0.24687472	      0.00000000	      0.00000000	     -9.05995510	    -10.07788791	    -11.19494112	     51.15283301	     51.15283301	      2.56255425	      0.00000000	      0.00000000	    -21.58629349	      5.57945924	      4.52981662
      0.74166667	     10.25765644	     -2.39293499	      2.73315937	      0.92738748	      1.00126306	      0.26788100	      4.85816393	      4.06964629	    -10.91193998	     15.75573025	     15.75573025	      0.53323780	      0.00000000	      0.00000000	     -8.21010273	    -10.86809038	    -11.82776737	     53.53471104	     53.53471104	      3.86739352	      0.00000000	      0.00000000	    -21.85394351	      5.51114144	      4.95710715
      0.75000000	     10.37831293	     -2.51588000	      2.47821335	      0.93566279	      1.00261029	      0.27000698	      4.18893538	      4.34492758	    -11.00662142	     15.77513039	     15.77513039	      0.78208393	      0.00000000	      0.00000000	     -7.11987630	    -11.55345009	    -12.31980858	     55.77865286	     55.77865286	      5.36240237	      0.00000000	      0.00000000	    -21.96279976	      5.45005846	      5.27386930
      0.75833333	     10.47695839	     -2.63193559	      2.18451373	      0.94385698	      1.00389195	      0.27222041	      3.54438149	      4.62026477	    -10.97767256	     15.78944243	     15.78944243	      1.06928800	      0.00000000	      0.00000000	     -6.06341164	    -12.16755049	    -12.80666664	     57.60708430	     57.60708430	      6.40429212	      0.00000000	      0.00000000	    -22.05160557	      5.35518195	      5.61552688
